<?xml version="1.0" encoding="UTF-8" standalone="no"?>
<!-- Created with Inkscape (http://www.inkscape.org/) -->

<svg
   sodipodi:docname="youtube_zen_icon_default.svg"
   inkscape:version="1.1.2 (0a00cf5339, 2022-02-04, custom)"
   id="svg5"
   version="1.1"
   viewBox="0 0 136.4682 85.679123"
   height="85.679123mm"
   width="136.4682mm"
   xmlns:inkscape="http://www.inkscape.org/namespaces/inkscape"
   xmlns:sodipodi="http://sodipodi.sourceforge.net/DTD/sodipodi-0.dtd"
   xmlns="http://www.w3.org/2000/svg"
   xmlns:svg="http://www.w3.org/2000/svg">
  <sodipodi:namedview
     id="namedview7"
     pagecolor="#505050"
     bordercolor="#ffffff"
     borderopacity="1"
     inkscape:pageshadow="0"
     inkscape:pageopacity="0"
     inkscape:pagecheckerboard="1"
     inkscape:document-units="mm"
     showgrid="false"
     inkscape:zoom="2.8284271"
     inkscape:cx="517.24861"
     inkscape:cy="110.13188"
     inkscape:window-width="1920"
     inkscape:window-height="1002"
     inkscape:window-x="1920"
     inkscape:window-y="59"
     inkscape:window-maximized="1"
     inkscape:current-layer="layer1"
     inkscape:snap-bbox="true"
     inkscape:snap-bbox-edge-midpoints="true"
     inkscape:object-nodes="false"
     inkscape:snap-others="true"
     inkscape:snap-object-midpoints="true"
     inkscape:bbox-paths="true"
     inkscape:snap-bbox-midpoints="false"
     inkscape:snap-global="true"
     inkscape:bbox-nodes="true"
     fit-margin-top="0"
     fit-margin-left="0"
     fit-margin-right="0"
     fit-margin-bottom="0"
     height="85.67912mm" />
  <defs
     id="defs2" />
  <g
     inkscape:label="Layer 1"
     inkscape:groupmode="layer"
     id="layer1"
     transform="translate(-4.1082764,-2.3078694)">
    <g
       id="g953">
      <path
         id="rect846"
         style="opacity:1;fill:#ff4c40;fill-opacity:1;stroke:none;stroke-width:3;stroke-opacity:1;paint-order:stroke markers fill"
         d="M 52.582031,8.7226562 C 32.053713,8.7226563 15.527344,25.249026 15.527344,45.777344 V 206.50195 c 0,20.52832 16.526369,37.05469 37.054687,37.05469 H 259.23633 A 124.32719,124.32719 0 0 1 256.37891,217.26367 124.32719,124.32719 0 0 1 380.70703,92.9375 124.32719,124.32719 0 0 1 395.49805,93.830078 V 45.777344 c 0,-20.528318 -16.52637,-37.0546878 -37.05469,-37.0546878 z"
         transform="scale(0.26458333)" />
      <path
         sodipodi:type="star"
         style="opacity:1;fill:#ffffff;fill-opacity:1;stroke:none;stroke-width:3;paint-order:stroke markers fill"
         id="path1528"
         inkscape:flatsided="true"
         sodipodi:sides="3"
         sodipodi:cx="-199.10564"
         sodipodi:cy="49.469246"
         sodipodi:r1="114.2666"
         sodipodi:r2="57.133297"
         sodipodi:arg1="2.0943951"
         sodipodi:arg2="3.1415927"
         inkscape:rounded="0"
         inkscape:randomized="0"
         d="m -256.23894,148.42703 0,-197.915564 171.399905,98.95778 z"
         transform="matrix(0.14850029,0,0,0.14850029,79.111061,26.028308)"
         inkscape:transform-center-x="-4.2421538" />
      <path
         id="circle4302"
         style="opacity:1;fill:none;stroke:#ff4c40;stroke-width:2.84676;stroke-miterlimit:4;stroke-dasharray:none;stroke-opacity:1;paint-order:normal"
         d="M 130.38072,57.193272 A 29.370337,29.370337 0 0 1 101.01039,86.563608 29.370337,29.370337 0 0 1 71.640055,57.193272 29.370337,29.370337 0 0 1 101.01039,27.822935 29.370337,29.370337 0 0 1 130.38072,57.193272 Z" />
      <path
         id="path8844"
         style="opacity:1;fill:none;stroke:#ff4c40;stroke-width:2.84675;stroke-miterlimit:4;stroke-dasharray:none;stroke-opacity:1;paint-order:normal"
         d="M 121.22138,57.193277 A 20.210993,20.210993 0 0 1 101.01039,77.404269 20.210993,20.210993 0 0 1 80.799404,57.193277 20.210993,20.210993 0 0 1 101.01039,36.982283 20.210993,20.210993 0 0 1 121.22138,57.193277 Z" />
      <path
         id="path8846"
         style="opacity:1;fill:#5b7bff;fill-opacity:1;stroke:#ffffff;stroke-width:2.847;stroke-miterlimit:4;stroke-dasharray:none;stroke-opacity:1;paint-order:normal"
         d="m 110.97585,57.193275 a 9.9654662,9.9654664 0 0 1 -9.96546,9.965466 9.9654662,9.9654664 0 0 1 -9.965465,-9.965466 9.9654662,9.9654664 0 0 1 9.965465,-9.965467 9.9654662,9.9654664 0 0 1 9.96546,9.965467 z" />
      <g
         id="g33683"
         inkscape:transform-center-y="-23.507927"
         style="fill:#5b7bff;fill-opacity:1"
         transform="rotate(38.592225,184.15671,-10.343126)"
         inkscape:transform-center-x="-19.248196">
        <g
           id="g33345"
           style="fill:#5b7bff;fill-opacity:1">
          <path
             id="rect20756"
             style="fill:#5b7bff;fill-opacity:1;stroke:none;stroke-width:11.3386"
             d="m 502.55859,35.234375 a 4.3790483,4.3790483 0 0 0 -3.3125,1.646484 l -29.70117,37.216797 a 5.5392446,5.5392446 0 0 0 -0.8164,5.50586 l 4.87304,12.232422 -96.65234,121.105472 8.86328,7.07226 96.65234,-121.109373 13.00196,2.039063 a 5.5392446,5.5392446 0 0 0 5.1875,-2.017579 l 29.70312,-37.21875 a 4.3790483,4.3790483 0 0 0 -2.75976,-7.058593 l -15.20704,-2.333985 -5.64843,-14.310547 a 4.3790483,4.3790483 0 0 0 -4.1836,-2.769531 z"
             transform="matrix(0.20679969,-0.16504008,0.16504008,0.20679969,46.67065,112.6132)" />
        </g>
        <g
           id="path13778"
           style="fill:#5b7bff;fill-opacity:1">
          <path
             style="color:#000000;fill:#5b7bff;fill-opacity:1;stroke-width:3;-inkscape-stroke:none"
             d="M 161.26694,38.867103 V 94.43762"
             id="path33649" />
        </g>
      </g>
      <g
         id="g37747"
         inkscape:transform-center-y="-23.507927"
         style="fill:#5b7bff;fill-opacity:1"
         transform="rotate(38.592225,184.15671,-10.343126)"
         inkscape:transform-center-x="-19.248196">
        <g
           id="g37741"
           style="fill:#5b7bff;fill-opacity:1">
          <path
             id="path37739"
             style="fill:#5b7bff;fill-opacity:1;stroke:none;stroke-width:11.3386"
             d="m 502.55859,35.234375 a 4.3790483,4.3790483 0 0 0 -3.3125,1.646484 l -29.70117,37.216797 a 5.5392446,5.5392446 0 0 0 -0.8164,5.50586 l 4.87304,12.232422 -96.65234,121.105472 8.86328,7.07226 96.65234,-121.109373 13.00196,2.039063 a 5.5392446,5.5392446 0 0 0 5.1875,-2.017579 l 29.70312,-37.21875 a 4.3790483,4.3790483 0 0 0 -2.75976,-7.058593 l -15.20704,-2.333985 -5.64843,-14.310547 a 4.3790483,4.3790483 0 0 0 -4.1836,-2.769531 z"
             transform="matrix(0.20679969,-0.16504008,0.16504008,0.20679969,46.67065,112.6132)" />
        </g>
        <g
           id="g37745"
           style="fill:#5b7bff;fill-opacity:1">
          <path
             style="color:#000000;fill:#5b7bff;fill-opacity:1;stroke-width:3;-inkscape-stroke:none"
             d="M 161.26694,38.867103 V 94.43762"
             id="path37743" />
        </g>
      </g>
    </g>
  </g>
</svg>
